<svg width="25" height="24" viewBox="0 0 25 24" fill="none" xmlns="http://www.w3.org/2000/svg">
<g id="&#240;&#159;&#166;&#134; icon &#34;slack logo&#34;">
<path id="Vector" d="M23.2994 12C23.726 11.7547 24.0933 11.4248 24.3766 11.0325C24.66 10.6401 24.8529 10.1943 24.9426 9.72469C25.0323 9.2551 25.0167 8.77255 24.8968 8.30921C24.7769 7.84588 24.5554 7.41241 24.2472 7.03773C23.939 6.66304 23.5511 6.35575 23.1095 6.13633C22.6678 5.91692 22.1824 5.79044 21.6858 5.76532C21.1892 5.74019 20.6927 5.81701 20.2294 5.99065C19.7662 6.16428 19.3468 6.43075 18.9993 6.77226V3.36093C18.9995 2.62625 18.7487 1.91178 18.2855 1.32698C17.8223 0.742186 17.1721 0.319326 16.4345 0.123192C15.697 -0.0729413 14.9129 -0.0315295 14.2022 0.241082C13.4916 0.513694 12.8936 1.00247 12.5 1.63252C12.2444 1.22296 11.9008 0.870422 11.4921 0.59841C11.0834 0.326398 10.619 0.141165 10.1299 0.0550654C9.64071 -0.0310346 9.13805 -0.0160231 8.65542 0.0990987C8.17278 0.21422 7.72126 0.426806 7.33096 0.722679C6.94067 1.01855 6.62057 1.39091 6.39202 1.81493C6.16346 2.23894 6.03171 2.70486 6.00554 3.18162C5.97937 3.65837 6.05938 4.13501 6.24024 4.57973C6.42111 5.02446 6.69867 5.42706 7.05441 5.76067H3.50096C2.73567 5.7605 1.99142 6.00121 1.38226 6.44592C0.773097 6.89063 0.332618 7.51481 0.128315 8.22283C-0.0759888 8.93084 -0.0328475 9.68364 0.251128 10.3659C0.535104 11.0481 1.04425 11.6221 1.70055 12C1.27393 12.2453 0.906701 12.5752 0.623353 12.9675C0.340005 13.3599 0.147052 13.8057 0.0573627 14.2753C-0.0323271 14.7449 -0.0166924 15.2274 0.103224 15.6908C0.223141 16.1541 0.444583 16.5876 0.752783 16.9623C1.06098 17.3369 1.44886 17.6442 1.89054 17.8636C2.33222 18.0831 2.81755 18.2095 3.31417 18.2347C3.8108 18.2598 4.30729 18.183 4.77055 18.0094C5.2338 17.8357 5.65317 17.5693 6.00069 17.2278V20.6391C6.00051 21.3738 6.25124 22.0882 6.71448 22.673C7.17772 23.2578 7.82791 23.6807 8.56543 23.8768C9.30294 24.0729 10.0871 24.0315 10.7978 23.7589C11.5084 23.4863 12.1064 22.9975 12.5 22.3675C12.7556 22.777 13.0991 23.1296 13.5078 23.4016C13.9165 23.6736 14.3809 23.8588 14.8701 23.9449C15.3593 24.031 15.8619 24.016 16.3446 23.9009C16.8272 23.7858 17.2787 23.5732 17.669 23.2773C18.0593 22.9814 18.3794 22.6091 18.608 22.1851C18.8365 21.7611 18.9683 21.2951 18.9944 20.8184C19.0206 20.3416 18.9406 19.865 18.7597 19.4203C18.5789 18.9755 18.3013 18.5729 17.9456 18.2393H21.499C22.2643 18.2395 23.0086 17.9988 23.6177 17.5541C24.2269 17.1094 24.6674 16.4852 24.8717 15.7772C25.076 15.0692 25.0328 14.3164 24.7488 13.6341C24.4649 12.9519 23.9557 12.3779 23.2994 12ZM21.499 6.72057C22.162 6.72057 22.7978 6.9734 23.2666 7.42344C23.7354 7.87348 23.9987 8.48386 23.9987 9.12031C23.9987 9.75676 23.7354 10.3671 23.2666 10.8172C22.7978 11.2672 22.162 11.5201 21.499 11.5201H18.9993V9.12031C19 8.48408 19.2636 7.8741 19.7323 7.42422C20.2009 6.97433 20.8363 6.72128 21.499 6.72057ZM17.9456 11.5201C17.9637 11.503 17.9816 11.4858 17.9994 11.4684V11.5201H17.9456ZM15.4997 0.961188C16.1624 0.961896 16.7978 1.21495 17.2664 1.66484C17.7351 2.11472 17.9987 2.7247 17.9994 3.36093V9.12031C17.9987 9.75654 17.7351 10.3665 17.2664 10.8164C16.7978 11.2663 16.1624 11.5193 15.4997 11.5201H12.9999V3.36093C13.0007 2.7247 13.2643 2.11472 13.7329 1.66484C14.2015 1.21495 14.8369 0.961896 15.4997 0.961188ZM12.9999 17.2277C13.0177 17.2452 13.0356 17.2624 13.0538 17.2794H12.9999V17.2277ZM12 6.77226C11.9823 6.75484 11.9643 6.73761 11.9462 6.72057H12V6.77226ZM7.00058 3.36093C7.00058 2.72448 7.26394 2.1141 7.73273 1.66406C8.20152 1.21402 8.83734 0.961188 9.50031 0.961188C10.1633 0.961188 10.7991 1.21402 11.2679 1.66406C11.7367 2.1141 12 2.72448 12 3.36093V5.76067H9.50031C8.83757 5.75996 8.20218 5.50691 7.73355 5.05702C7.26492 4.60714 7.00132 3.99716 7.00058 3.36093ZM1.00123 9.12031C1.00196 8.48408 1.26557 7.8741 1.7342 7.42422C2.20283 6.97433 2.83821 6.72128 3.50096 6.72057H9.50031C10.1631 6.72128 10.7984 6.97433 11.2671 7.42422C11.7357 7.8741 11.9993 8.48408 12 9.12031V11.5201H3.50096C2.83821 11.5193 2.20283 11.2663 1.7342 10.8164C1.26557 10.3665 1.00196 9.75654 1.00123 9.12031ZM7.05441 12.4799C7.03628 12.497 7.01834 12.5142 7.00058 12.5316V12.4799H7.05441ZM3.50096 17.2794C2.83799 17.2794 2.20217 17.0266 1.73338 16.5766C1.26459 16.1265 1.00123 15.5161 1.00123 14.8797C1.00123 14.2432 1.26459 13.6329 1.73338 13.1828C2.20217 12.7328 2.83799 12.4799 3.50096 12.4799H6.00069V14.8797C5.99995 15.5159 5.73635 16.1259 5.26772 16.5758C4.79909 17.0257 4.1637 17.2787 3.50096 17.2794ZM9.50031 23.0388C8.83757 23.0381 8.20218 22.785 7.73355 22.3352C7.26492 21.8853 7.00132 21.2753 7.00058 20.6391V14.8797C7.00132 14.2435 7.26492 13.6335 7.73355 13.1836C8.20218 12.7337 8.83757 12.4807 9.50031 12.4799H12V20.6391C11.9993 21.2753 11.7357 21.8853 11.2671 22.3352C10.7984 22.785 10.1631 23.0381 9.50031 23.0388ZM17.9994 20.6391C17.9994 21.2755 17.736 21.8859 17.2672 22.3359C16.7984 22.786 16.1626 23.0388 15.4997 23.0388C14.8367 23.0388 14.2009 22.786 13.7321 22.3359C13.2633 21.8859 12.9999 21.2755 12.9999 20.6391V18.2393H15.4997C16.1624 18.24 16.7978 18.4931 17.2664 18.943C17.7351 19.3929 17.9987 20.0028 17.9994 20.6391ZM21.499 17.2794H15.4997C14.8369 17.2787 14.2015 17.0257 13.7329 16.5758C13.2643 16.1259 13.0007 15.5159 12.9999 14.8797V12.4799H21.499C22.162 12.4799 22.7978 12.7328 23.2666 13.1828C23.7354 13.6329 23.9987 14.2432 23.9987 14.8797C23.9987 15.5161 23.7354 16.1265 23.2666 16.5766C22.7978 17.0266 22.162 17.2794 21.499 17.2794Z" fill="white"/>
</g>
</svg>
